<svg width="160" height="160" viewBox="0 0 160 160" fill="none" xmlns="http://www.w3.org/2000/svg">
  <defs>
    <pattern id="charlie-dots" x="0" y="0" width="8" height="8" patternUnits="userSpaceOnUse">
      <circle cx="2" cy="2" r="1.1" fill="#191C1B"/>
    </pattern>
    <clipPath id="charlie-face-clip">
      <path d="M37 72C37 42.2 55.6 22 80 22C104.4 22 123 42.2 123 72V87C123 115.2 104.9 136 80 136C55.1 136 37 115.2 37 87V72Z"/>
    </clipPath>
  </defs>
  <path d="M22 82C22 73.7 27.6 67 35 67C39.1 67 42.7 69 45 72.2V95.8C42.7 99 39.1 101 35 101C27.6 101 22 94.3 22 86V82Z" fill="#FCFCFC" stroke="#191C1B" stroke-width="4"/>
  <path d="M138 82C138 73.7 132.4 67 125 67C120.9 67 117.3 69 115 72.2V95.8C117.3 99 120.9 101 125 101C132.4 101 138 94.3 138 86V82Z" fill="#FCFCFC" stroke="#191C1B" stroke-width="4"/>
  <path d="M37 72C37 42.2 55.6 22 80 22C104.4 22 123 42.2 123 72V87C123 115.2 104.9 136 80 136C55.1 136 37 115.2 37 87V72Z" fill="#FCFCFC" stroke="#191C1B" stroke-width="4"/>
  <g clip-path="url(#charlie-face-clip)">
    <rect x="36" y="22" width="88" height="114" fill="url(#charlie-dots)"/>
  </g>
  <path d="M31 55C38 36 52 18 72 14C85.6 11.3 93.8 16.3 102.8 17.7C107.5 18.4 112.5 18.2 119 16C120.1 25.1 123.6 32.6 129.6 42.7C123.2 40.8 117.8 40.6 112.6 41.2C111.4 33.1 104.7 27 96 27C89.9 27 84.7 30 81.5 34.6C79.2 29.7 74.2 26.3 68.4 26.3C60.5 26.3 53.8 32.7 53 40.7C45.7 39.5 38.7 40.7 31 55Z" fill="#191C1B"/>
  <path d="M33 51C38.8 61.4 43.8 68 50.8 70.8C56.8 73.2 63.5 70.4 66.4 64.7C68.3 60.9 67.5 56.5 65 53.5C69.5 57.1 74.6 59.5 78.8 58.1C83.7 56.5 86.7 49.6 87.7 43.5C89.7 51.3 94.9 56.9 101.2 57.7C108.5 58.6 115.7 53 118.2 43.1C121.4 49.7 125.4 59.4 126.2 68.2L129 81L121 47L109.5 33.7L91.4 23.6L69.8 21.3L50.7 27.1L38.7 39.3L33 51Z" fill="#191C1B"/>
  <path d="M50 64C54.6 61.5 59.9 60.2 65.4 60.2C70.7 60.2 73.7 61.6 79 64" stroke="#191C1B" stroke-width="6" stroke-linecap="round"/>
  <path d="M82 64C86.6 61.5 91.9 60.2 97.4 60.2C102.7 60.2 105.7 61.6 111 64" stroke="#191C1B" stroke-width="6" stroke-linecap="round"/>
  <path d="M53 81C56.9 76.5 61 74.5 66 74.5C71 74.5 74.5 76.7 77 81" stroke="#191C1B" stroke-width="5" stroke-linecap="round"/>
  <path d="M83 81C86.9 76.5 91 74.5 96 74.5C101 74.5 104.5 76.7 107 81" stroke="#191C1B" stroke-width="5" stroke-linecap="round"/>
  <path d="M82 73L75.8 100.5C75 103.9 77.6 107 81.1 107H86" stroke="#191C1B" stroke-width="5" stroke-linecap="round" stroke-linejoin="round"/>
  <path d="M70 117C75.2 121.2 80.3 123 86 123C91.7 123 96 120.8 100 117.2" stroke="#191C1B" stroke-width="5" stroke-linecap="round"/>
</svg>
