<svg width="160" height="160" viewBox="0 0 160 160" fill="none" xmlns="http://www.w3.org/2000/svg">
  <path d="M22 83C22 74.5 27.7 67.5 35.3 67.5C39.9 67.5 43.8 69.8 46.3 73.5V95.5C43.8 99.2 39.9 101.5 35.3 101.5C27.7 101.5 22 94.5 22 86V83Z" fill="#FCFCFC" stroke="#191C1B" stroke-width="4"/>
  <path d="M138 83C138 74.5 132.3 67.5 124.7 67.5C120.1 67.5 116.2 69.8 113.7 73.5V95.5C116.2 99.2 120.1 101.5 124.7 101.5C132.3 101.5 138 94.5 138 86V83Z" fill="#FCFCFC" stroke="#191C1B" stroke-width="4"/>
  <path d="M38 71C38 42.5 56 23 80 23C104 23 122 42.5 122 71V88C122 115.4 104.1 136 80 136C55.9 136 38 115.4 38 88V71Z" fill="#FCFCFC" stroke="#191C1B" stroke-width="4"/>
  <path d="M38 58C39.4 31.1 57.6 16 90.7 16C105 16 118.8 21.1 129.1 33.4C127.8 40.1 125.4 45 121.9 49.5C112.8 45.3 103.8 44.1 94.3 44.1H51.2C44.9 44.1 40.5 48.6 38 58Z" fill="#191C1B"/>
  <path d="M122.4 29.8C125.3 39.1 125.2 48 121.8 56.4C114.5 59 110 64.1 108.1 71.7C104.2 64.8 98 59.9 90.3 56.6C83.4 53.7 75.3 52.3 66.2 52.3C54.8 52.3 45.4 54.6 38.2 59.1V54.1C42.5 44.5 48.9 37 57.4 31.7C67.4 25.6 79 22.5 92.1 22.5C103.8 22.5 113.9 24.9 122.4 29.8Z" fill="#191C1B"/>
  <path d="M44 76C46.3 67.8 51.9 63.7 60.9 63.7H70.1C79.7 63.7 85.5 68.8 87.4 79" stroke="#191C1B" stroke-width="5" stroke-linecap="round"/>
  <path d="M72.5 79.5C74.4 77.9 76.7 77.1 79.4 77.1C82.1 77.1 84.4 77.9 86.3 79.5" stroke="#191C1B" stroke-width="5" stroke-linecap="round"/>
  <path d="M86.5 79C88.4 68.8 94.2 63.7 103.8 63.7H113C122 63.7 127.6 67.8 129.9 76" stroke="#191C1B" stroke-width="5" stroke-linecap="round"/>
  <rect x="44" y="61" width="35" height="32" rx="12" stroke="#191C1B" stroke-width="5"/>
  <rect x="81" y="61" width="35" height="32" rx="12" stroke="#191C1B" stroke-width="5"/>
  <path d="M80 65V58" stroke="#191C1B" stroke-width="5" stroke-linecap="round"/>
  <path d="M82 76L75.7 102C74.7 106 77.8 109.8 81.9 109.8H86.6" stroke="#191C1B" stroke-width="5" stroke-linecap="round" stroke-linejoin="round"/>
  <path d="M70 120C73.7 123.5 77 125 80.9 125C84.8 125 88.1 123.5 91.8 120" stroke="#191C1B" stroke-width="5" stroke-linecap="round"/>
</svg>
